<?xml version="1.0" standalone="no"?><!DOCTYPE svg PUBLIC "-//W3C//DTD SVG 1.1//EN" "http://www.w3.org/Graphics/SVG/1.1/DTD/svg11.dtd"><svg t="1494313884985" class="icon" style="" viewBox="0 0 1058 1024" version="1.1" xmlns="http://www.w3.org/2000/svg" p-id="8760" xmlns:xlink="http://www.w3.org/1999/xlink" width="206.640625" height="200"><defs><style type="text/css"></style></defs><path d="M981.333333 492.373333c0 231.253333-194.56 418.133333-435.2 418.133334s-435.2-186.88-435.2-418.133334 194.56-418.133333 435.2-418.133333c240.64-0.853333 435.2 186.88 435.2 418.133333" fill="#FFE04A" p-id="8761"></path><path d="M546.133333 922.453333C299.52 922.453333 98.133333 729.6 98.133333 492.373333S299.52 61.44 546.133333 61.44s448 192.853333 448 430.933333-200.533333 430.08-448 430.08z m0-836.266666c-232.96 0-423.253333 181.76-423.253333 405.333333s189.44 405.333333 423.253333 405.333333 423.253333-181.76 423.253334-405.333333-190.293333-405.333333-423.253334-405.333333z" fill="#545971" p-id="8762"></path><path d="M548.693333 778.24c-180.053333 0-336.213333-57.173333-410.453333-180.053333 51.2 174.933333 215.04 302.933333 410.453333 302.933333s359.253333-128 410.453334-302.933333c-75.093333 123.733333-230.4 180.053333-410.453334 180.053333" fill="#FFD05A" p-id="8763"></path><path d="M787.626667 372.906667c-9.386667 0-17.066667-7.68-17.066667-17.066667 0-33.28-31.573333-74.24-68.266667-74.24s-68.266667 40.96-68.266666 74.24c0 9.386667-7.68 17.066667-17.066667 17.066667s-17.066667-7.68-17.066667-17.066667c0-49.493333 44.373333-107.52 101.546667-107.52S802.986667 306.346667 802.986667 355.84c0.853333 9.386667-5.973333 17.066667-15.36 17.066667zM416.426667 372.906667c-9.386667 0-17.066667-7.68-17.066667-17.066667 0-33.28-31.573333-74.24-68.266667-74.24s-68.266667 40.96-68.266666 74.24c0 9.386667-7.68 17.066667-17.066667 17.066667s-17.066667-7.68-17.066667-17.066667c0-49.493333 44.373333-107.52 101.546667-107.52s101.546667 58.026667 101.546667 107.52c1.706667 9.386667-5.973333 17.066667-15.36 17.066667z" fill="#545971" p-id="8764"></path><path d="M395.093333 448c0 35.84-29.866667 64.853333-67.413333 64.853333s-67.413333-29.013333-67.413333-64.853333c0-35.84 29.866667-64.853333 67.413333-64.853333s67.413333 29.013333 67.413333 64.853333M764.586667 448c0 35.84-30.72 64.853333-67.413334 64.853333-37.546667 0-67.413333-29.013333-67.413333-64.853333 0-35.84 29.866667-64.853333 67.413333-64.853333 36.693333 0 67.413333 29.013333 67.413334 64.853333" fill="#FCBD83" p-id="8765"></path><path d="M512.853333 743.253333c-12.8 0-24.746667-4.266667-36.693333-11.946666-23.04-17.92-33.28-36.693333-32.426667-58.026667 0.853333-22.186667 14.506667-40.106667 26.453334-52.053333-15.36-9.386667-35.84-24.746667-41.813334-46.933334-5.12-17.92 0-35.84 13.653334-53.76 38.4-49.493333 102.4-22.186667 130.56-0.853333 5.973333 4.266667 6.826667 11.946667 2.56 17.92-4.266667 5.973333-11.946667 6.826667-17.92 2.56-2.56-1.706667-62.293333-45.226667-95.573334-3.413333-8.533333 11.093333-11.946667 21.333333-9.386666 31.573333 5.12 20.48 34.133333 34.986667 45.226666 39.253333 4.266667 1.706667 7.68 5.973333 7.68 10.24 0.853333 5.12-1.706667 9.386667-5.973333 11.946667-8.533333 5.973333-29.866667 24.746667-30.72 44.373333 0 11.946667 6.826667 23.893333 22.186667 35.84 11.946667 8.533333 24.746667 9.386667 36.693333 3.413334 15.36-6.826667 26.453333-23.893333 27.306667-35.84 0.853333-6.826667 6.826667-11.946667 13.653333-11.946667 6.826667 0.853333 11.946667 6.826667 11.946667 13.653333-1.706667 20.48-17.066667 46.08-41.813334 58.026667-8.533333 4.266667-17.066667 5.973333-25.6 5.973333z" fill="#545971" p-id="8766"></path><path d="M89.6 505.173333c-34.133333-30.72-89.6-10.24-89.6 39.253334 0 68.266667 89.6 107.52 89.6 107.52S180.053333 609.28 180.053333 544.426667c0-49.493333-50.346667-69.12-90.453333-39.253334z m0 0" fill="#F49792" p-id="8767"></path><path d="M297.813333 577.706667C253.44 537.6 180.053333 564.053333 180.053333 629.76c0 89.6 118.613333 140.8 118.613334 140.8s118.613333-55.466667 118.613333-140.8c-0.853333-65.706667-66.56-91.306667-119.466667-52.053333z m0 0" fill="#F66E60" p-id="8768"></path></svg>