<?xml version="1.0" standalone="no"?><!DOCTYPE svg PUBLIC "-//W3C//DTD SVG 1.1//EN" "http://www.w3.org/Graphics/SVG/1.1/DTD/svg11.dtd"><svg t="1494313879298" class="icon" style="" viewBox="0 0 1124 1024" version="1.1" xmlns="http://www.w3.org/2000/svg" p-id="8622" xmlns:xlink="http://www.w3.org/1999/xlink" width="219.53125" height="200"><defs><style type="text/css"></style></defs><path d="M247.774696 234.173446S138.259277 169.664363 79.000934 209.41996s-58.508238-17.252429-48.756865 57.758133c9.751373 75.010561 68.259611 22.503168 49.50697 67.509505s142.520066-6.750951 102.764469-3.750528c-39.755597 2.250317-66.759399 45.006337-121.517109 48.756864-54.007604 3.750528 37.505281 41.255809 61.50866 88.512463 24.00338 48.006759 63.758977 63.758977 138.769538-0.750106s-4.500634-109.515419-4.500634-109.515419l-9.001267-123.767426z" fill="#FFFFFE" p-id="8623"></path><path d="M177.264769 519.213578c-3.750528 0-8.251162-0.750106-12.00169-1.500211-21.002957-4.500634-37.505281-19.502746-51.007182-45.756442-9.751373-18.75264-32.254541-36.755175-50.257076-51.757288-20.252852-16.502323-33.004647-26.253696-29.254119-38.255386 3.750528-11.251584 18.75264-12.00169 24.753486-12.751795 12.751795-0.750106 23.253274-3.750528 33.754752-8.251162-7.501056-0.750106-13.501901-3.000422-18.002535-6.000845-3.750528-3.000422-10.501479-10.501479-4.500633-24.753485 1.500211-4.500634 2.250317-6.750951 3.000422-8.251162-1.500211 0-3.000422-0.750106-4.500633-0.750105-14.252007-1.500211-41.255809-5.250739-48.00676-54.007604-1.500211-9.001267-2.250317-16.502323-3.000422-21.753063-2.250317-16.502323-3.000422-21.753063 1.500211-26.253697 3.750528-4.500634 9.001267-3.750528 12.751796-3.750528 6.750951 0.750106 18.75264 1.500211 41.255808-14.252006 63.758977-42.75602 174.024502 21.753063 178.525136 24.753485l4.500633 2.250317 9.751373 123.767426c9.751373 6.750951 33.754753 25.503591 36.755175 54.007604 2.250317 23.253274-9.751373 45.756442-35.254963 67.509505-36.005069 31.504436-65.259188 45.756442-90.762779 45.756442z m-121.517109-129.768271c4.500634 4.500634 13.501901 12.00169 20.252851 17.252429 19.502746 15.752218 43.506125 35.254964 54.75771 57.758132 10.501479 21.002957 23.253274 33.004647 38.255386 36.00507 21.753063 4.500634 51.007182-9.001267 86.262145-39.755598 21.002957-18.002535 30.75433-35.254964 28.504014-51.757287-2.250317-25.503591-31.504436-42.005914-31.504436-42.75602l-3.750528-3.000422-9.751373-123.767426C218.520577 228.922706 131.508326 185.416581 84.251673 216.921017c-24.00338 16.502323-39.755597 18.002535-48.756865 17.252429 0 2.250317 0.750106 5.250739 1.500211 8.251161 0.750106 6.000845 2.250317 12.751795 3.000423 22.503169 4.500634 34.504858 18.002535 36.005069 31.504435 37.50528 6.750951 0.750106 15.002112 1.500211 19.502746 9.001268 4.500634 7.501056 1.500211 17.252429-2.250317 26.253696-0.750106 2.250317-0.750106 3.000422-0.750105 3.000423 1.500211 1.500211 12.751795 5.250739 45.006337-0.750106 15.752218-9.751373 30.75433-18.002535 49.50697-18.75264 3.750528 0 12.751795-0.750106 15.752218 6.75095 1.500211 3.750528 0.750106 9.001267-4.500634 12.751796S165.263079 352.690132 140.509594 357.940872c-0.750106 0.750106-2.250317 1.500211-3.000423 2.250316-20.252852 12.751795-42.75602 26.253696-74.260455 29.254119h-7.501056z" fill="#545971" p-id="8624"></path><path d="M978.377562 460.70534c0 198.777987-168.023657 360.050694-375.052806 360.050694s-375.052806-161.272707-375.052806-360.050694 168.023657-360.050694 375.052806-360.050693 375.052806 161.272707 375.052806 360.050693" fill="#FFE04A" p-id="8625"></path><path d="M603.324756 839.508674c-216.780522 0-393.805446-169.523868-393.805446-378.803334S386.544234 82.652112 603.324756 82.652112s393.805446 169.523868 393.805446 378.803334-176.274819 378.053228-393.805446 378.053228z m0-735.103499C398.545924 104.405175 232.022478 264.17767 232.022478 460.70534S398.545924 817.755612 603.324756 817.755612s372.052383-159.772495 372.052384-356.300166S808.103588 104.405175 603.324756 104.405175z" fill="#545971" p-id="8626"></path><path d="M603.324756 839.508674c-216.780522 0-393.805446-169.523868-393.805446-378.803334S386.544234 82.652112 603.324756 82.652112s393.805446 169.523868 393.805446 378.803334-176.274819 378.053228-393.805446 378.053228z m0-735.103499C398.545924 104.405175 232.022478 264.17767 232.022478 460.70534S398.545924 817.755612 603.324756 817.755612s372.052383-159.772495 372.052384-356.300166S808.103588 104.405175 603.324756 104.405175z" fill="#545971" p-id="8627"></path><path d="M391.044868 608.476146C298.031772 474.207241 259.02628 329.436858 310.033462 211.670277 208.769204 338.438126 200.518043 525.964529 301.032195 670.734912c100.514152 144.770383 279.039288 202.528515 432.810938 152.271439-127.517954 6.750951-249.785169-80.2613-342.798265-214.530205" fill="#FFD05A" p-id="8628"></path><path d="M815.604644 745.745473c0-41.255809 8.251162-173.274396 8.251162-173.274396 0-4.500634-3.000422-9.001267-7.501056-9.001268H557.568314c-3.750528 0-7.501056 3.750528-7.501056 9.001268V720.991988c0 12.751795 0 63.008871 15.002112 97.513729 15.752218 35.254964 257.286225-39.755597 250.535274-72.760244z" fill="#545971" p-id="8629"></path><path d="M784.100209 592.723928V731.493466c0 10.501479-9.001267 19.502746-20.252852 19.502746H616.826657c-11.251584 0-20.252852-9.001267-20.252851-19.502746V592.723928h187.526403z" fill="#FFE04A" p-id="8630"></path><path d="M749.59535 778.000014c0 14.252007-12.00169 26.253696-26.253696 26.253697H676.085c-14.252007 0-26.253696-12.00169-26.253696-26.253697l9.001267-64.509082c0-14.252007 12.00169-26.253696 26.253697-26.253697h29.254119c14.252007 0 26.253696 12.00169 26.253696 26.253697l9.001267 64.509082zM699.338274 654.982694c-43.506125 0-69.759822-18.75264-71.260033-19.502746-5.250739-3.750528-6.000845-10.501479-2.250316-15.752218 3.750528-5.250739 10.501479-6.000845 15.002112-2.250317 0 0 22.503168 15.002112 57.758132 15.002113s53.257498-13.501901 53.257498-13.501901c4.500634-3.750528 12.00169-3.000422 15.752218 2.250316 3.750528 4.500634 3.000422 11.251584-1.500211 15.752218-0.750106 0.750106-22.503168 18.002535-66.7594 18.002535z" fill="#545971" p-id="8631"></path><path d="M404.546769 360.941294c0 63.758977 51.757287 115.516264 115.516264 115.516264s115.516264-51.757287 115.516264-115.516264H404.546769z" fill="#E2C074" p-id="8632"></path><path d="M404.546769 330.93707c0 63.758977 51.757287 115.516264 115.516264 115.516264s115.516264-51.757287 115.516264-115.516264H404.546769z" fill="#FFFFFF" p-id="8633"></path><path d="M519.312928 453.95439c-67.509505 0-123.01732-54.75771-123.017321-123.01732 0-4.500634 3.000422-7.501056 7.501056-7.501057h231.032529c4.500634 0 7.501056 3.000422 7.501056 7.501057 0 68.259611-54.75771 123.01732-123.01732 123.01732zM412.047825 338.438126c3.750528 56.257921 50.257076 100.514152 107.265103 100.514152S623.577608 394.696047 627.328136 338.438126H412.047825z" fill="#545971" p-id="8634"></path><path d="M543.316307 353.440238a25.503591 18.75264 0 1 0 51.007182 0 25.503591 18.75264 0 1 0-51.007182 0Z" fill="#545971" p-id="8635"></path><path d="M727.092182 360.941294c0 52.507393 42.75602 94.513307 94.513307 94.513307 52.507393 0 94.513307-42.75602 94.513307-94.513307H727.092182z" fill="#E2C074" p-id="8636"></path><path d="M727.092182 336.187809c0 52.507393 42.75602 94.513307 94.513307 94.513307 52.507393 0 94.513307-42.75602 94.513307-94.513307H727.092182z" fill="#FFFFFF" p-id="8637"></path><path d="M822.355595 438.202172c-56.257921 0-102.014363-45.756442-102.014363-102.014363 0-4.500634 3.000422-7.501056 7.501056-7.501056h189.776719c4.500634 0 7.501056 3.000422 7.501057 7.501056-0.750106 56.257921-46.506548 102.014363-102.764469 102.014363zM735.343344 343.688865c3.750528 44.256231 41.255809 79.511195 87.012251 79.511195s83.261723-35.254964 87.012251-79.511195H735.343344z" fill="#545971" p-id="8638"></path><path d="M844.858763 353.440238a21.002957 15.752218 0 1 0 42.005914 0 21.002957 15.752218 0 1 0-42.005914 0Z" fill="#545971" p-id="8639"></path><path d="M965.625767 295.682106c-278.289182-108.015208-510.821922-75.760667-735.853606 29.254119-7.501056-5.250739 25.503591-309.043512 341.298054-315.794463 315.044357-6.750951 413.308192 286.540344 394.555552 286.540344z" fill="#FFFFFE" p-id="8640"></path><path d="M229.022056 335.437703l-4.500634-3.000422c-14.252007-9.751373 6.750951-78.010984 7.501056-81.011406 22.503168-73.51035 99.764046-246.034641 338.297631-251.28538 222.781367-5.250739 333.046892 138.019433 370.552172 200.278198 23.253274 38.255386 42.005914 85.51204 34.504859 99.764046-2.250317 3.750528-5.250739 6.000845-9.751373 6.000845h-1.500212l-1.500211-0.750105c-248.284958-96.013518-480.067592-87.012251-728.352549 28.504013l-5.250739 1.500211z m352.549637-316.544568H571.070215c-110.265525 2.250317-197.277776 41.255809-258.036331 117.016476-54.75771 67.509505-71.260033 145.520489-74.260455 174.774607 244.534429-111.015631 474.066747-120.016898 718.601176-27.753908-5.250739-21.753063-27.003802-75.760667-74.260456-130.518376C829.856651 90.903274 734.593238 18.893135 581.571693 18.893135z" fill="#545971" p-id="8641"></path><path d="M943.872704 247.675347c-2.250317 0-4.500634-0.750106-6.750951-2.250317-82.511617-62.258766-150.771228-77.260878-151.521333-77.260878-6.000845-1.500211-9.751373-7.501056-8.251162-12.751796 1.500211-6.000845 6.750951-9.751373 12.751795-8.251161 3.000422 0.750106 73.51035 15.752218 160.522601 81.011406 5.250739 3.750528 6.000845 10.501479 2.250317 15.752218-2.250317 2.250317-5.250739 3.750528-9.001267 3.750528zM236.523112 276.17936c-3.000422 0-6.000845-0.750106-7.501056-3.000423-4.500634-4.500634-4.500634-11.251584 0-15.752217C303.282511 183.91637 412.047825 169.664363 417.298564 168.914257c6.000845-0.750106 11.251584 3.750528 12.00169 9.751373 0.750106 6.000845-3.750528 11.251584-9.751373 12.00169-0.750106 0-106.514997 14.252007-175.524713 81.761512-2.250317 2.250317-4.500634 3.750528-7.501056 3.750528z" fill="#545971" p-id="8642"></path><path d="M958.874816 750.996212c39.005492 27.753908 57.008026 136.519221 39.005492 185.276086-18.002535 48.756865-207.029149 73.51035-207.029149 73.51035s-75.010561 18.75264-89.262568-98.263835c-15.002112-117.016475 54.75771-132.018588 54.75771-132.018588s162.772918-56.257921 202.528515-28.504013z" fill="#6274B2" p-id="8643"></path><path d="M822.355595 892.016067c9.001267 85.51204-30.004224 117.766581-30.004225 117.766581s-75.010561 18.75264-89.262567-98.263835c-15.002112-117.016475 39.755597-129.018165 54.757709-132.018588 14.252007-3.750528 54.75771 27.003802 64.509083 112.515842z" fill="#545971" p-id="8644"></path><path d="M814.104433 886.015222c2.250317-0.750106 4.500634-3.750528 7.501056-4.500633 5.250739 23.253274 2.250317 78.010984-9.001267 99.01394-1.500211 0-20.252852-5.250739-17.252429-15.752217" fill="#E2C137" p-id="8645"></path><path d="M802.852849 856.761103c2.250317-0.750106 7.501056-8.251162 9.751373-9.751373 9.001267 22.503168 15.002112 76.510772 6.75095 99.013941-1.500211 0-21.002957-1.500211-19.502746-12.751795" fill="#E2C137" p-id="8646"></path><path d="M817.104856 948.273988c12.00169-25.503591 3.000422-72.010139-20.252852-102.014363-70.509928-107.265102-282.789816-12.751795-235.533162 56.257921 0 0-23.253274 46.506548 21.002957 58.508237 0 0-23.253274 40.505703 20.252852 49.506971 47.256654 9.001267 30.004224-47.256654 103.514574-57.008027 27.003802 9.001267 72.010139 42.005914 111.015631-5.250739M560.568736 906.268074c13.501901-24.753485 40.505703-55.507815 85.51204-50.257076M580.071482 964.776312c-4.500634 15.752218 24.00338-64.509083 85.51204-56.257921" fill="#FFE04A" p-id="8647"></path><path d="M348.288848 763.748008c-71.260033 27.753908-103.514574 136.519221-71.260033 185.276086 32.254541 48.756865 377.303123 73.51035 377.303123 73.51035s93.013096 21.002957 120.016898-96.013519c27.003802-117.016475-56.257921-135.01901-56.257921-135.01901s-297.791928-55.507815-369.802067-27.753907z" fill="#6274B2" p-id="8648"></path></svg>