<?xml version="1.0" standalone="no"?><!DOCTYPE svg PUBLIC "-//W3C//DTD SVG 1.1//EN" "http://www.w3.org/Graphics/SVG/1.1/DTD/svg11.dtd"><svg t="1494313890142" class="icon" style="" viewBox="0 0 1024 1024" version="1.1" xmlns="http://www.w3.org/2000/svg" p-id="8880" xmlns:xlink="http://www.w3.org/1999/xlink" width="200" height="200"><defs><style type="text/css"></style></defs><path d="M155.306667 161.28c-1.706667 0-4.266667-0.853333-5.973334-1.706667-5.973333-3.413333-8.533333-11.093333-5.12-17.066666 23.04-44.373333 79.36-62.293333 125.44-40.106667 5.973333 3.413333 8.533333 10.24 5.973334 17.066667-3.413333 5.973333-10.24 8.533333-17.066667 5.973333-34.133333-16.213333-75.093333-3.413333-92.16 29.013333-1.706667 4.266667-6.826667 6.826667-11.093333 6.826667zM833.706667 106.666667c-4.266667 0-8.533333-2.56-11.093334-6.826667-17.066667-32.426667-58.026667-45.226667-92.16-29.013333-5.973333 3.413333-13.653333 0-17.066666-5.973334s0-13.653333 5.973333-17.066666c46.08-22.186667 102.4-4.266667 125.44 40.106666 3.413333 5.973333 0.853333 13.653333-5.12 17.066667-1.706667 0.853333-3.413333 1.706667-5.973333 1.706667z" fill="#545971" p-id="8881"></path><path d="M959.146667 512c0 231.253333-194.56 418.133333-435.2 418.133333s-435.2-186.88-435.2-418.133333 194.56-418.133333 435.2-418.133333c239.786667 0 435.2 186.88 435.2 418.133333" fill="#FFE04A" p-id="8882"></path><path d="M523.093333 942.933333C276.48 942.933333 75.093333 749.226667 75.093333 512S275.626667 81.066667 523.093333 81.066667c246.613333 0 448 192.853333 448 430.933333 0 237.226667-200.533333 430.933333-448 430.933333z m0-836.266666C290.133333 106.666667 100.693333 288.426667 100.693333 512s189.44 405.333333 423.253334 405.333333c232.96 0 423.253333-181.76 423.253333-405.333333-0.853333-223.573333-190.293333-405.333333-424.106667-405.333333z" fill="#545971" p-id="8883"></path><path d="M518.826667 798.72c-180.053333 0-335.36-57.173333-409.6-180.053333C160.426667 793.6 324.266667 921.6 518.826667 921.6s358.4-128 409.6-302.933333c-74.24 122.88-229.546667 180.053333-409.6 180.053333" fill="#FFD05A" p-id="8884"></path><path d="M562.346667 753.493333c-20.48 0-32.426667-3.413333-34.133334-4.266666-8.533333-3.413333-13.653333-12.8-10.24-21.333334 3.413333-8.533333 12.8-13.653333 21.333334-10.24 0 0 38.4 11.093333 112.64-16.213333s104.106667-78.506667 105.813333-81.066667c4.266667-7.68 12.8-11.093333 21.333333-7.68s12.8 12.8 9.386667 21.333334c0 0.853333-33.28 65.706667-124.586667 98.986666-45.226667 16.213333-78.506667 20.48-101.546666 20.48zM436.906667 352.426667s-11.946667 164.693333-177.493334 180.906666C93.013333 549.546667 102.4 352.426667 102.4 352.426667s-5.973333-69.12 157.013333-79.36c162.986667-10.24 177.493333 79.36 177.493334 79.36M857.6 352.426667s-11.946667 164.693333-177.493333 180.906666c-165.546667 16.213333-157.013333-180.906667-157.013334-180.906666s-5.973333-69.12 157.013334-79.36c162.986667-10.24 177.493333 79.36 177.493333 79.36" fill="#545971" p-id="8885"></path><path d="M475.306667 374.613333c-58.88 0-82.773333-17.066667-85.333334-19.626666-5.12-4.266667-6.826667-11.946667-2.56-17.92 4.266667-5.12 11.946667-6.826667 17.92-2.56 0 0 23.04 16.213333 81.066667 14.506666 58.026667-1.706667 90.453333-30.72 92.16-31.573333 4.266667-4.266667 11.946667-5.12 17.066667-0.853333 5.12 4.266667 5.973333 11.946667 1.706666 17.92 0 0-39.253333 37.546667-109.226666 40.106666h-12.8z" fill="#545971" p-id="8886"></path><path d="M145.92 397.653333c-7.68-0.853333-12.8-6.826667-12.8-13.653333 0-1.706667 2.56-43.52 26.453333-67.413333 23.893333-23.893333 54.613333-23.04 55.466667-23.04 6.826667 0 12.8 5.973333 11.946667 12.8 0 6.826667-5.973333 11.946667-12.8 11.946666-0.853333 0-21.333333 0-37.546667 16.213334-13.653333 13.653333-18.773333 40.96-19.626667 51.2 0.853333 6.826667-4.266667 11.946667-11.093333 11.946666zM568.32 389.973333c-0.853333 0-2.56 0-3.413333-0.853333-6.826667-1.706667-10.24-8.533333-8.533334-15.36 0.853333-1.706667 11.946667-42.666667 40.106667-60.586667 28.16-17.92 58.026667-11.946667 58.88-11.093333 6.826667 1.706667 11.093333 8.533333 9.386667 15.36-1.706667 6.826667-8.533333 11.093333-15.36 9.386667 0 0-20.48-4.266667-40.106667 8.533333-17.066667 11.093333-27.306667 36.693333-29.866667 46.08-0.853333 5.12-5.973333 8.533333-11.093333 8.533333z" fill="#FFFFFF" p-id="8887"></path></svg>