<?xml version="1.0" standalone="no"?><!DOCTYPE svg PUBLIC "-//W3C//DTD SVG 1.1//EN" "http://www.w3.org/Graphics/SVG/1.1/DTD/svg11.dtd"><svg t="1494313918586" class="icon" style="" viewBox="0 0 1024 1024" version="1.1" xmlns="http://www.w3.org/2000/svg" p-id="9264" xmlns:xlink="http://www.w3.org/1999/xlink" width="200" height="200"><defs><style type="text/css"></style></defs><path d="M957.44 512c0 231.253333-194.56 418.133333-435.2 418.133333s-435.2-186.88-435.2-418.133333 194.56-418.133333 435.2-418.133333 435.2 186.88 435.2 418.133333" fill="#FFE04A" p-id="9265"></path><path d="M522.24 942.933333C275.626667 942.933333 74.24 749.226667 74.24 512S275.626667 81.066667 522.24 81.066667s448 192.853333 448 430.933333-201.386667 430.933333-448 430.933333z m0-836.266666c-232.96 0-423.253333 181.76-423.253333 405.333333s189.44 405.333333 423.253333 405.333333 423.253333-181.76 423.253333-405.333333-190.293333-405.333333-423.253333-405.333333z" fill="#545971" p-id="9266"></path><path d="M519.68 798.72c-177.493333 0-331.093333-57.173333-404.48-180.053333C165.546667 793.6 327.68 921.6 519.68 921.6s354.133333-128 404.48-302.933333c-74.24 122.88-226.986667 180.053333-404.48 180.053333" fill="#FFD05A" p-id="9267"></path><path d="M799.573333 601.6c0 46.933333-40.106667 85.333333-88.746666 85.333333-49.493333 0-88.746667-38.4-88.746667-85.333333s40.106667-85.333333 88.746667-85.333333 88.746667 37.546667 88.746666 85.333333" fill="#FCBD83" p-id="9268"></path><path d="M405.333333 601.6c0 46.933333-40.106667 85.333333-88.746666 85.333333-49.493333 0-88.746667-38.4-88.746667-85.333333s40.106667-85.333333 88.746667-85.333333c49.493333 0 88.746667 37.546667 88.746666 85.333333" fill="#FCBD83" p-id="9269"></path><path d="M506.026667 773.973333H503.466667c-44.373333-1.706667-64-39.253333-64.853334-40.96-3.413333-5.973333-0.853333-13.653333 5.12-17.066666 5.973333-3.413333 13.653333-0.853333 17.066667 5.12 0.853333 0.853333 13.653333 25.6 43.52 27.306666 29.013333 1.706667 46.08-28.16 46.08-28.16 3.413333-5.973333 11.093333-8.533333 17.066667-5.12s8.533333 11.093333 5.12 17.066667c-0.853333 2.56-23.893333 41.813333-66.56 41.813333zM311.466667 519.68c-87.893333 0-126.293333-48.64-128-50.346667-6.826667-9.386667-5.12-22.186667 3.413333-29.013333 9.386667-6.826667 22.186667-5.12 29.013333 3.413333 1.706667 1.706667 30.72 35.84 99.84 34.133334 70.826667-1.706667 99.84-32.426667 100.693334-34.133334 7.68-8.533333 20.48-9.386667 29.013333-1.706666 8.533333 7.68 9.386667 20.48 2.56 29.013333-1.706667 1.706667-40.96 46.08-131.413333 48.64h-5.12z" fill="#545971" p-id="9270"></path><path d="M180.053333 570.026667H179.2c-6.826667 0-11.946667-5.973333-11.946667-13.653334 0-6.826667 5.973333-11.946667 12.8-11.946666 0.853333 0 15.36-0.853333 29.866667-22.186667 16.213333-23.893333 13.653333-42.666667 13.653333-43.52-0.853333-6.826667 4.266667-12.8 10.24-14.506667 6.826667-0.853333 12.8 3.413333 14.506667 10.24 0 0.853333 4.266667 28.16-17.92 61.44-19.626667 32.426667-44.373333 34.133333-50.346667 34.133334zM286.72 587.946667h-0.853333c-6.826667-0.853333-11.946667-6.826667-11.946667-13.653334 0.853333-6.826667 5.973333-11.093333 11.946667-11.946666 0.853333 0 6.826667-2.56 14.506666-17.92 10.24-22.186667 9.386667-40.106667 9.386667-40.106667-0.853333-6.826667 4.266667-12.8 11.093333-13.653333 6.826667-0.853333 12.8 4.266667 13.653334 11.093333 0 0.853333 1.706667 24.746667-11.093334 52.906667-14.506667 30.72-31.573333 33.28-36.693333 33.28zM418.133333 585.386667c-3.413333 0-6.826667-1.706667-9.386666-4.266667-29.866667-31.573333-33.28-87.893333-33.28-90.453333 0-6.826667 5.12-12.8 11.946666-12.8 6.826667 0 12.8 5.12 12.8 11.946666 0 0.853333 2.56 49.493333 26.453334 75.093334 5.12 5.12 4.266667 12.8 0 17.92-2.56 1.706667-5.12 2.56-8.533334 2.56zM694.613333 519.68h-5.973333c-91.306667-2.56-129.706667-46.933333-131.413333-48.64-7.68-8.533333-6.826667-22.186667 2.56-29.866667 8.533333-7.68 22.186667-6.826667 29.866666 2.56 0.853333 0.853333 29.866667 32.426667 100.693334 34.133334 69.973333 1.706667 98.986667-32.426667 99.84-34.133334 6.826667-8.533333 20.48-10.24 29.013333-3.413333 9.386667 6.826667 10.24 19.626667 3.413333 29.013333-0.853333 2.56-39.253333 50.346667-128 50.346667z" fill="#545971" p-id="9271"></path><path d="M826.88 570.026667c-5.973333 0-29.866667-1.706667-51.2-33.28-22.186667-32.426667-17.92-59.733333-17.92-61.44 0.853333-6.826667 7.68-11.946667 14.506667-10.24 6.826667 0.853333 11.946667 7.68 10.24 14.506666 0 0.853333-2.56 18.773333 13.653333 43.52 15.36 22.186667 29.866667 22.186667 29.866667 22.186667 6.826667 0 12.8 5.12 12.8 11.946667 0 6.826667-5.12 12.8-11.946667 12.8 0.853333 0 0 0 0 0zM720.213333 587.946667c-5.12 0-22.186667-2.56-36.693333-32.426667-13.653333-29.013333-11.093333-52.053333-11.093333-52.906667 0.853333-6.826667 6.826667-11.946667 13.653333-11.093333 6.826667 0.853333 11.946667 6.826667 11.093333 13.653333 0 0-1.706667 17.92 9.386667 40.106667 6.826667 15.36 12.8 17.92 14.506667 17.92 5.973333 0 11.946667 5.12 11.946666 11.946667 0.853333 6.826667-4.266667 12.8-11.946666 13.653333 0-0.853333-0.853333-0.853333-0.853334-0.853333zM588.8 585.386667c-3.413333 0-5.973333-0.853333-8.533333-3.413334-5.12-5.12-5.12-12.8 0-17.92 19.626667-20.48 25.6-60.586667 26.453333-74.24 0-6.826667 5.973333-11.946667 12.8-11.946666s11.946667 5.973333 11.946667 12.8c0 2.56-2.56 58.88-33.28 91.306666-3.413333 2.56-5.973333 3.413333-9.386667 3.413334z" fill="#545971" p-id="9272"></path></svg>