<?xml version="1.0" standalone="no"?><!DOCTYPE svg PUBLIC "-//W3C//DTD SVG 1.1//EN" "http://www.w3.org/Graphics/SVG/1.1/DTD/svg11.dtd"><svg t="1494313863475" class="icon" style="" viewBox="0 0 1115 1024" version="1.1" xmlns="http://www.w3.org/2000/svg" p-id="8352" xmlns:xlink="http://www.w3.org/1999/xlink" width="217.7734375" height="200"><defs><style type="text/css"></style></defs><path d="M244.494326 232.294681S135.8407 168.29323 77.048669 207.735985s-58.047828-17.116667-48.37319 57.303625c9.674638 74.420292 67.722466 22.326088 49.117393 66.978262s141.398555-6.697826 101.9558-3.721014c-39.442755 2.232609-66.23406 44.652175-120.560873 48.37319-53.58261 3.721015 37.210146 40.931161 61.024639 87.815944 23.814493 47.628987 63.257248 63.257248 137.677541-0.744203s-4.465218-108.653626-4.465218-108.653626l-8.930435-122.793482z" fill="#FFFFFE" p-id="8353"></path><path d="M174.539252 515.091791c-3.721015 0-8.186232-0.744203-11.907247-1.488406-20.837682-4.465218-37.210146-19.349276-50.605799-45.396378-9.674638-18.605073-32.000726-35.72174-49.861595-50.605799-20.093479-16.372464-32.744929-26.047102-29.023914-37.954349 3.721015-11.163044 18.605073-11.907247 24.558696-12.651449 12.65145-0.744203 23.070291-3.721015 33.489131-8.186232-7.442029-0.744203-13.395653-2.976812-17.86087-5.953624-3.721015-2.976812-10.418841-10.418841-4.465217-24.558696 1.488406-4.465218 2.232609-6.697826 2.976811-8.186232-1.488406 0-2.976812-0.744203-4.465217-0.744203-14.139855-1.488406-40.931161-5.20942-47.628987-53.58261-1.488406-8.930435-2.232609-16.372464-2.976812-21.581885-2.232609-16.372464-2.976812-21.581885 1.488406-26.047102 3.721015-4.465218 8.930435-3.721015 12.65145-3.721015 6.697826 0.744203 18.605073 1.488406 40.93116-14.139855 63.257248-42.419566 172.655078 21.581885 177.120296 24.558696l4.465217 2.232609 9.674638 122.793482c9.674638 6.697826 33.489131 25.302899 36.465943 53.58261 2.232609 23.070291-9.674638 45.396378-34.977537 66.978263-34.977537 30.51232-64.745654 44.652175-90.048553 44.652175zM53.978378 386.344686c4.465218 4.465218 12.65145 11.163044 19.349276 17.116667 19.349276 15.628261 43.163769 34.977537 54.326814 57.303625 10.418841 20.837682 23.070291 32.744929 37.954349 35.72174 21.581885 4.465218 50.605799-8.930435 85.583335-39.442755 20.837682-17.86087 30.51232-34.977537 29.023914-51.350001-2.232609-25.302899-31.256523-41.675364-31.256522-42.419567l-4.465218-2.232609-9.674638-122.793482c-20.093479-11.163044-106.421018-54.326813-153.305802-23.07029-23.814493 16.372464-39.442755 17.86087-48.373189 17.116667 0 2.232609 0.744203 5.20942 1.488405 8.186232 0.744203 5.953623 2.232609 12.65145 2.976812 22.326088 4.465218 34.233334 17.86087 35.72174 31.256523 37.210146 6.697826 0.744203 14.884058 1.488406 19.349276 8.930435 4.465218 7.442029 1.488406 17.116667-2.232609 26.047102-0.744203 2.232609-0.744203 2.976812-0.744203 2.976812 1.488406 1.488406 12.65145 5.20942 44.652175-0.744203 15.628261-9.674638 30.51232-17.86087 49.117393-18.605073 3.721015 0 12.65145-0.744203 15.628261 6.697826 1.488406 3.721015 0.744203 8.930435-4.465217 12.65145S161.887802 349.878743 137.329106 355.088163c-0.744203 0.744203-2.232609 1.488406-2.976812 2.232609-20.093479 12.65145-42.419566 26.047102-73.676089 29.023914h-6.697827z" fill="#545971" p-id="8354"></path><path d="M969.347971 457.043963c0 197.213774-166.701454 357.217402-372.10146 357.217402s-372.10146-160.003628-372.101461-357.217402 166.701454-357.217402 372.101461-357.217402 372.10146 160.003628 372.10146 357.217402" fill="#FFE04A" p-id="8355"></path><path d="M597.246511 832.866438C382.171867 832.866438 206.539977 664.676578 206.539977 457.043963S382.171867 81.965691 597.246511 81.965691 987.953044 250.155551 987.953044 457.043963s-174.887686 375.822475-390.706533 375.822475z m0-729.318862C394.079113 103.547576 228.866065 262.062798 228.866065 457.043963s165.213048 353.496387 369.124649 353.496388 369.124649-158.515222 369.124648-353.496388S801.158111 103.547576 597.246511 103.547576z" fill="#545971" p-id="8356"></path><path d="M597.246511 832.866438C382.171867 832.866438 206.539977 664.676578 206.539977 457.043963S382.171867 81.965691 597.246511 81.965691 987.953044 250.155551 987.953044 457.043963s-174.887686 375.822475-390.706533 375.822475z m0-729.318862C394.079113 103.547576 228.866065 262.062798 228.866065 457.043963s165.213048 353.496387 369.124649 353.496388 369.124649-158.515222 369.124648-353.496388S801.158111 103.547576 597.246511 103.547576z" fill="#545971" p-id="8357"></path><path d="M382.916069 597.698315C293.611719 469.695413 258.634182 330.529467 310.728386 215.922217c-101.211597 124.281888-113.118844 305.123198-17.116667 443.544941 96.002177 138.421743 269.401457 190.515948 421.218853 139.165946-125.026091 8.930435-243.354355-72.931886-331.914503-200.934789" fill="#FFD05A" p-id="8358"></path><path d="M807.855937 739.841073c0-40.931161 8.186232-171.910875 8.186232-171.910875 0-4.465218-2.976812-8.930435-7.442029-8.930435H551.850132c-3.721015 0-7.442029 3.721015-7.442029 8.930435V715.282377c0 12.65145 0 62.513045 14.884059 96.746379s114.60725 81.862321 146.607975 180.84131c31.256523 98.978988 50.605799-62.513045 68.466669-144.375366 5.953623-81.118118 40.186958-75.908698 33.489131-108.653627z" fill="#545971" p-id="8359"></path><path d="M777.343617 588.023677v137.677541c0 10.418841-8.930435 19.349276-20.093478 19.349276H610.642163c-11.163044 0-20.093479-8.930435-20.093479-19.349276V588.023677h186.794933z" fill="#FFE04A" p-id="8360"></path><path d="M742.36608 771.841799c0 14.139855-11.907247 26.047102-26.047102 26.047102h-46.140581c-14.139855 0-26.047102-11.907247-26.047102-26.047102l8.930435-64.001451c0-14.139855 11.907247-26.047102 26.047102-26.047103h29.023914c14.139855 0 26.047102 11.907247 26.047102 26.047103l8.186232 64.001451zM692.504485 650.536723c-43.163769 0-69.210872-18.605073-70.699278-19.349276-5.20942-3.721015-5.953623-10.418841-2.232609-15.628262 3.721015-5.20942 10.418841-5.953623 14.884059-2.232608 0.744203 0 22.326088 14.884058 57.303625 14.884058s52.838407-13.395653 52.838407-13.395653c4.465218-3.721015 11.907247-2.976812 15.628261 2.232609 3.721015 4.465218 2.976812 11.163044-1.488406 15.628262-0.744203 0-22.326088 17.86087-66.234059 17.86087z" fill="#545971" p-id="8361"></path><path d="M400.032737 358.064975c0 63.257248 51.350002 114.60725 114.607249 114.60725s114.60725-51.350002 114.60725-114.60725H400.032737z" fill="#545971" p-id="8362"></path><path d="M400.032737 328.296858c0 63.257248 51.350002 114.60725 114.607249 114.60725s114.60725-51.350002 114.60725-114.60725H400.032737z" fill="#FFFFFF" p-id="8363"></path><path d="M514.639986 450.346137c-66.978263 0-122.049279-54.326813-122.049279-122.049279 0-4.465218 2.976812-7.442029 7.44203-7.442029h229.214499c4.465218 0 7.442029 2.976812 7.442029 7.442029-0.744203 67.722466-55.071016 122.049279-122.049279 122.049279zM407.474766 335.738887c3.721015 55.815219 50.605799 99.723191 106.421017 99.723192 56.559422 0 102.700003-43.907972 106.421018-99.723192H407.474766z" fill="#545971" p-id="8364"></path><path d="M524.314624 412.391788a25.302899 18.605073 0 1 0 50.605799 0 25.302899 18.605073 0 1 0-50.605799 0Z" fill="#545971" p-id="8365"></path><path d="M720.784196 358.064975c0 52.094204 42.419566 93.769568 93.769568 93.769568 52.094204 0 93.769568-42.419566 93.769568-93.769568H720.784196z" fill="#545971" p-id="8366"></path><path d="M720.784196 333.506278c0 52.094204 42.419566 93.769568 93.769568 93.769568 52.094204 0 93.769568-42.419566 93.769568-93.769568H720.784196z" fill="#FFFFFF" p-id="8367"></path><path d="M814.553764 434.717876c-55.815219 0-101.211597-45.396378-101.211598-101.211598 0-4.465218 2.976812-7.442029 7.44203-7.442029h188.283338c4.465218 0 7.442029 2.976812 7.44203 7.442029-0.744203 55.815219-46.140581 101.211597-101.9558 101.211598zM728.226225 340.948308c3.721015 43.907972 40.931161 78.88551 86.327539 78.885509s82.606524-34.977537 86.327538-78.885509H728.226225z" fill="#545971" p-id="8368"></path><path d="M832.414634 396.763527a20.837682 15.628261 0 1 0 41.675363 0 20.837682 15.628261 0 1 0-41.675363 0Z" fill="#545971" p-id="8369"></path><path d="M545.896509 983.195428c-24.558696-15.628261-42.419566-59.536234-39.442755-98.234785 0-130.979714 233.679717-168.934063 231.447109-83.350727 0 0 46.140581 26.047102 14.884058 61.768842 0 0 42.419566 21.581885 9.674638 53.58261-35.72174 34.233334-52.094204-23.814493-120.560873 8.930435-17.116667 22.326088-35.72174 75.908698-96.002177 57.303625" fill="#FFE04A" p-id="8370"></path><path d="M568.9668 998.079487c-8.186232 0-17.116667-1.488406-26.791306-4.465218-0.744203 0-1.488406-0.744203-2.976811-1.488406-28.279711-17.86087-47.628987-65.489857-44.652175-107.909423 0-46.140581 26.047102-85.583336 73.676089-112.374641 52.838407-29.768117 119.072467-35.72174 154.794207-14.884059 14.884058 8.930435 23.814493 22.326088 25.3029 38.698552 8.186232 5.953623 22.326088 18.605073 25.302899 36.465943 1.488406 9.674638 0 19.349276-5.953623 28.279711 7.442029 5.953623 15.628261 14.884058 17.116667 27.535508 1.488406 12.65145-2.976812 25.302899-15.628262 36.465944-21.581885 20.837682-40.186958 14.139855-56.559422 8.186232-16.372464-5.953623-33.489131-11.907247-64.001451 1.488405-2.232609 2.976812-4.465218 6.697826-6.697826 9.674638-11.907247 21.581885-32.000726 54.326813-72.931886 54.326814z m-18.605073-25.3029c41.675364 11.907247 58.792031-15.628261 73.676089-40.186957 2.976812-5.20942 5.953623-9.674638 8.930435-13.395653 0.744203-1.488406 2.232609-2.976812 4.465217-3.721015 40.186958-19.349276 65.489857-10.418841 83.350728-3.721014 15.628261 5.20942 21.581885 8.186232 33.489131-3.721015 6.697826-6.697826 9.674638-11.907247 8.930435-17.116667-1.488406-8.930435-12.65145-16.372464-16.372464-17.86087-2.976812-1.488406-5.20942-4.465218-5.953624-8.186232-0.744203-3.721015 0-6.697826 2.976812-9.674638 6.697826-7.442029 8.930435-14.139855 8.186232-20.093479-1.488406-11.163044-14.884058-21.581885-19.349276-23.814493-3.721015-2.232609-5.953623-5.953623-5.953623-9.674638 0-11.163044-4.465218-19.349276-14.884059-25.3029-28.279711-17.116667-87.815945-10.418841-132.468119 14.884059-23.070291 13.395653-62.513045 43.163769-62.513046 93.769568v0.744203c-2.232609 33.489131 12.65145 72.931886 33.489132 87.071741z" fill="#545971" p-id="8371"></path><path d="M740.877674 804.586727c-25.302899-13.395653-65.489857-24.558696-100.467394 4.465218" fill="#FFE04A" p-id="8372"></path><path d="M640.41028 820.959192c-2.976812 0-6.697826-1.488406-8.930435-3.721015-3.721015-4.465218-2.976812-11.907247 1.488406-15.628261 31.256523-25.302899 72.187683-27.535508 113.118844-5.953624 5.20942 2.976812 7.442029 9.674638 4.465217 14.884059s-9.674638 7.442029-14.884058 4.465217c-19.349276-10.418841-55.815219-23.070291-88.560148 3.721015-2.232609 1.488406-4.465218 2.232609-6.697826 2.232609z" fill="#545971" p-id="8373"></path><path d="M757.250139 864.867164c12.65145 10.418841-56.559422-41.675364-104.188409 0" fill="#FFE04A" p-id="8374"></path><path d="M759.482747 877.518614c-3.721015 0-7.442029-1.488406-8.930435-2.976812-38.698552-20.093479-68.466669-20.093479-90.048553-1.488406-4.465218 3.721015-11.907247 3.721015-15.628261-0.744203s-3.721015-11.907247 0.744202-15.628261c19.349276-17.116667 55.071016-31.256523 112.374642-2.232609 2.232609 0 4.465218 0.744203 5.953623 2.976812 8.186232 7.442029 4.465218 14.139855 3.721015 16.372464-2.232609 2.232609-5.20942 3.721015-8.186233 3.721015z" fill="#545971" p-id="8375"></path><path d="M956.696521 293.319321c-276.099284-107.165221-506.802189-75.164495-730.063065 29.023914-7.442029-5.20942 25.302899-306.611603 338.612329-313.30943 312.565227-6.697826 410.055809 284.285516 391.450736 284.285516z" fill="#FFFFFE" p-id="8376"></path><path d="M225.889253 332.762075l-4.465217-2.976811c-14.139855-9.674638 6.697826-78.141307 7.442029-80.373916 22.326088-72.931886 98.978988-244.098558 335.635517-249.307978 221.028268-4.465218 330.426097 136.933337 367.636243 198.70218 23.070291 37.954349 41.675364 84.839133 34.233334 98.978988-2.232609 3.721015-5.20942 5.953623-9.674638 5.953624h-1.488405l-1.488406-0.744203c-246.331167-95.257974-476.289869-86.327539-722.621036 28.279711l-5.209421 1.488405zM576.408829 18.708443h-10.418841C455.847956 20.941052 369.520417 59.639603 309.23998 134.804098c-54.326813 66.978263-70.699277 144.375367-73.676089 173.399281 242.610152-110.142032 470.336246-119.072467 712.946398-27.535508-5.20942-21.581885-26.791305-75.164495-73.676089-129.491308C821.995793 90.151923 727.482022 18.708443 576.408829 18.708443z" fill="#545971" p-id="8377"></path><path d="M935.85884 245.690334c-2.232609 0-4.465218-0.744203-6.697827-2.232609C846.554489 181.688882 778.832023 166.804824 778.08782 166.804824c-5.953623-1.488406-9.674638-7.442029-8.186232-12.65145 1.488406-5.953623 7.442029-9.674638 12.65145-8.186232 2.976812 0.744203 72.931886 15.628261 159.259425 80.373916 5.20942 3.721015 5.953623 10.418841 2.232609 15.628261-1.488406 2.232609-5.20942 3.721015-8.186232 3.721015zM233.331282 273.970045c-2.976812 0-5.953623-0.744203-7.442029-2.976812-4.465218-4.465218-4.465218-11.163044 0-15.628261 73.676089-72.931886 182.329716-87.071742 186.794933-87.815945 5.953623-0.744203 11.163044 3.721015 11.907247 9.674638 0.744203 5.953623-3.721015 11.163044-9.674638 11.907247-0.744203 0-105.676815 14.139855-174.143483 81.118118-1.488406 2.976812-4.465218 3.721015-7.44203 3.721015z" fill="#545971" p-id="8378"></path></svg>