<?xml version="1.0" encoding="iso-8859-1"?>
<!-- Generator: Adobe Illustrator 19.0.0, SVG Export Plug-In . SVG Version: 6.00 Build 0)  -->
<svg version="1.1" id="Capa_1" xmlns="http://www.w3.org/2000/svg" xmlns:xlink="http://www.w3.org/1999/xlink" x="0px" y="0px"
	 viewBox="0 0 512 512" style="enable-background:new 0 0 512 512;" xml:space="preserve">
<rect style="fill:#F0F0F0;" width="512" height="512"/>
<g>
	<rect y="64" style="fill:#D80027;" width="512" height="64"/>
	<rect y="192" style="fill:#D80027;" width="512" height="64"/>
	<rect y="320" style="fill:#D80027;" width="512" height="64"/>
	<rect y="448" style="fill:#D80027;" width="512" height="64"/>
</g>
<rect style="fill:#2E52B2;" width="256" height="275.69"/>
<g>
	<polygon style="fill:#F0F0F0;" points="51.518,115.318 45.924,132.529 27.826,132.529 42.469,143.163 36.875,160.375 
		51.518,149.741 66.155,160.375 60.56,143.163 75.203,132.529 57.106,132.529 	"/>
	<polygon style="fill:#F0F0F0;" points="57.106,194.645 51.518,177.434 45.924,194.645 27.826,194.645 42.469,205.279 
		36.875,222.49 51.518,211.857 66.155,222.49 60.56,205.279 75.203,194.645 	"/>
	<polygon style="fill:#F0F0F0;" points="51.518,53.202 45.924,70.414 27.826,70.414 42.469,81.047 36.875,98.259 51.518,87.625 
		66.155,98.259 60.56,81.047 75.203,70.414 57.106,70.414 	"/>
	<polygon style="fill:#F0F0F0;" points="128.003,115.318 122.409,132.529 104.311,132.529 118.954,143.163 113.36,160.375 
		128.003,149.741 142.64,160.375 137.045,143.163 151.689,132.529 133.591,132.529 	"/>
	<polygon style="fill:#F0F0F0;" points="133.591,194.645 128.003,177.434 122.409,194.645 104.311,194.645 118.954,205.279 
		113.36,222.49 128.003,211.857 142.64,222.49 137.045,205.279 151.689,194.645 	"/>
	<polygon style="fill:#F0F0F0;" points="210.076,194.645 204.489,177.434 198.894,194.645 180.797,194.645 195.44,205.279 
		189.845,222.49 204.489,211.857 219.125,222.49 213.531,205.279 228.174,194.645 	"/>
	<polygon style="fill:#F0F0F0;" points="204.489,115.318 198.894,132.529 180.797,132.529 195.44,143.163 189.845,160.375 
		204.489,149.741 219.125,160.375 213.531,143.163 228.174,132.529 210.076,132.529 	"/>
	<polygon style="fill:#F0F0F0;" points="128.003,53.202 122.409,70.414 104.311,70.414 118.954,81.047 113.36,98.259 
		128.003,87.625 142.64,98.259 137.045,81.047 151.689,70.414 133.591,70.414 	"/>
	<polygon style="fill:#F0F0F0;" points="204.489,53.202 198.894,70.414 180.797,70.414 195.44,81.047 189.845,98.259 
		204.489,87.625 219.125,98.259 213.531,81.047 228.174,70.414 210.076,70.414 	"/>
</g>
<g>
</g>
<g>
</g>
<g>
</g>
<g>
</g>
<g>
</g>
<g>
</g>
<g>
</g>
<g>
</g>
<g>
</g>
<g>
</g>
<g>
</g>
<g>
</g>
<g>
</g>
<g>
</g>
<g>
</g>
</svg>
