<?xml version="1.0" encoding="UTF-8"?>
<svg xmlns="http://www.w3.org/2000/svg" xmlns:xlink="http://www.w3.org/1999/xlink" height="374.1"
     preserveAspectRatio="xMidYMid meet" version="1.0" viewBox="-1.8 -23.3 445.2 374.1" width="445.2"
     zoomAndPan="magnify">
  <g>
    <g fill="#FFDA3E" id="change1_1">
      <path d="M61.082,60.989c0,0-41.99-7.64-61.082,41.992c0,0,26.727-22.907,64.903-22.907L61.082,60.989z"
            fill="inherit"/>
      <path d="M63.124,15.462L2.041,7.829c0,0-3.816,38.178,57.265,45.812L63.124,15.462z" fill="inherit"/>
    </g>
    <g id="change2_1">
      <path
        d="M61.629,14.914c0,0,91.622-38.179,160.341,7.633c68.717,45.812,29.048,132.805,83.986,141.255 c49.631,7.633,106.895,0,106.895,0s30.539,187.062-175.612,187.062C0.547,350.864,61.629,14.914,61.629,14.914z"
        fill="#A5DCE9"/>
    </g>
    <g fill="#96CFDD" id="change3_1">
      <path
        d="M129.492,81.572c-3.185,0-6.377-0.57-9.451-1.714c-6.771-2.519-12.155-7.525-15.161-14.095 c-3.006-6.57-3.273-13.916-0.753-20.685c0.885-2.377,3.528-3.585,5.907-2.702c2.377,0.885,3.587,3.53,2.702,5.907 c-1.664,4.469-1.487,9.32,0.498,13.658c1.985,4.339,5.541,7.644,10.012,9.307c4.471,1.666,9.323,1.489,13.662-0.495 c4.338-1.984,7.644-5.539,9.307-10.01c0.884-2.378,3.531-3.589,5.906-2.703c2.377,0.884,3.588,3.529,2.703,5.906 c-2.519,6.771-7.525,12.155-14.096,15.161C137.141,80.748,133.322,81.572,129.492,81.572z"
        fill="inherit"/>
      <path
        d="M178.293,294.256c21.963,18.933,65.512,42.742,95.294,20.439c9.736-7.289,16.466-27.984,9.646-39.371 c-12.629-21.09-24.545-22.404-40.904-34.218c22.812,10.769,48.219,29.31,73.836,11.83c21.271-14.515,21.521-41.185-0.291-54.302 c-12.875-7.74-25.498-11.37-41.994-13.348c23.984,2.875,68.467,12.781,75.629-20.656c8.65-40.414-55.035-37.025-78.608-32.495 c-42.153,8.104-93.477,25.203-125.596,56.063C118.288,214.159,158.216,276.952,178.293,294.256z"
        fill="inherit"/>
    </g>
  </g>
</svg>
