<?xml version="1.0" standalone="no"?><!DOCTYPE svg PUBLIC "-//W3C//DTD SVG 1.1//EN" "http://www.w3.org/Graphics/SVG/1.1/DTD/svg11.dtd"><svg t="1494309096402" class="icon" style="" viewBox="0 0 1024 1024" version="1.1" xmlns="http://www.w3.org/2000/svg" p-id="13283" xmlns:xlink="http://www.w3.org/1999/xlink" width="200" height="200"><defs><style type="text/css"></style></defs><path d="M512.002 512.002m-491.988 0a491.988 491.988 0 1 0 983.976 0 491.988 491.988 0 1 0-983.976 0Z" fill="#FDDF6D" p-id="13284"></path><path d="M617.43 931.354c-271.716 0-491.986-220.268-491.986-491.986 0-145.168 62.886-275.632 162.888-365.684C129.054 155.124 20.014 320.828 20.014 512c0 271.716 220.268 491.986 491.986 491.986 126.548 0 241.924-47.796 329.098-126.298-67.106 34.31-143.124 53.666-223.668 53.666z" fill="#FCC56B" p-id="13285"></path><path d="M754.796 415.426c0 36.912 29.924 66.834 66.834 66.834 36.912 0 66.834-29.924 66.834-66.834h-133.668zM412.944 415.426c0 36.912 29.924 66.834 66.834 66.834 36.91 0 66.834-29.924 66.834-66.834h-133.668z" fill="#FFFFFF" p-id="13286"></path><path d="M300.576 550.976c-36.536 0-66.156 29.62-66.156 66.158h132.314c-0.004-36.54-29.622-66.158-66.158-66.158zM877.628 542.112c-36.536 0-66.156 29.62-66.156 66.156h132.314c0-36.536-29.622-66.156-66.158-66.156z" fill="#F9A880" p-id="13287"></path><path d="M625.648 761.938h-163.018c-11.054 0-20.014-8.962-20.014-20.014 0-11.054 8.962-20.014 20.014-20.014h163.018c53.874 0 104.522-20.978 142.62-59.072 7.816-7.816 20.49-7.816 28.304 0 7.816 7.816 7.816 20.49 0 28.304-45.656 45.652-106.356 70.796-170.924 70.796z" fill="" p-id="13288"></path><path d="M931.774 218.78c-58.966-84.262-140.682-148.21-236.314-184.926-10.314-3.962-21.896 1.19-25.856 11.51-3.962 10.32 1.19 21.896 11.51 25.856 88.156 33.846 163.49 92.806 217.864 170.506 55.604 79.458 84.994 172.916 84.994 270.268 0 260.248-211.724 471.97-471.97 471.97S40.03 772.244 40.03 512 251.752 40.03 512 40.03c11.054 0 20.014-8.962 20.014-20.014S523.054 0 512 0C229.68 0 0 229.68 0 512s229.68 512 512 512 512-229.68 512-512c0-105.602-31.89-206.998-92.226-293.22z" fill="" p-id="13289"></path><path d="M737.106 435.44c9.062 38.27 43.52 66.834 84.52 66.834 47.888 0 86.848-38.96 86.848-86.848 0-11.054-8.962-20.014-20.014-20.014h-194.996c-11.054 0-20.014 8.962-20.014 20.014 0 11.054 8.962 20.014 20.014 20.014h43.642z m126.846 0c-7.518 15.83-23.662 26.804-42.322 26.804-18.658 0-34.804-10.974-42.322-26.804h84.644zM341.208 415.426c0 11.054 8.962 20.014 20.014 20.014h34.032c9.062 38.27 43.52 66.834 84.52 66.834 47.888 0 86.848-38.96 86.848-86.848 0-11.054-8.962-20.014-20.014-20.014h-185.386c-11.052-0.002-20.014 8.96-20.014 20.014z m180.89 20.014c-7.518 15.83-23.662 26.804-42.322 26.804-18.66 0-34.804-10.974-42.322-26.804h84.644zM462.63 721.908c-11.054 0-20.014 8.962-20.014 20.014 0 11.054 8.962 20.014 20.014 20.014h163.018c64.568 0 125.268-25.144 170.922-70.798 7.816-7.816 7.816-20.49 0-28.304-7.816-7.816-20.49-7.816-28.304 0-38.094 38.094-88.746 59.076-142.62 59.076h-163.018v-0.002z" fill="" p-id="13290"></path><path d="M626.354 35.496m-20.014 0a20.014 20.014 0 1 0 40.028 0 20.014 20.014 0 1 0-40.028 0Z" fill="" p-id="13291"></path></svg>