<?xml version="1.0" standalone="no"?><!DOCTYPE svg PUBLIC "-//W3C//DTD SVG 1.1//EN" "http://www.w3.org/Graphics/SVG/1.1/DTD/svg11.dtd"><svg t="1494309102594" class="icon" style="" viewBox="0 0 1024 1024" version="1.1" xmlns="http://www.w3.org/2000/svg" p-id="13403" xmlns:xlink="http://www.w3.org/1999/xlink" width="200" height="200"><defs><style type="text/css"></style></defs><path d="M512.002 512.002m-491.988 0a491.988 491.988 0 1 0 983.976 0 491.988 491.988 0 1 0-983.976 0Z" fill="#FDDF6D" p-id="13404"></path><path d="M617.43 931.354c-271.716 0-491.986-220.268-491.986-491.986 0-145.168 62.886-275.632 162.888-365.684C129.054 155.124 20.014 320.828 20.014 512c0 271.716 220.268 491.986 491.986 491.986 126.548 0 241.924-47.796 329.098-126.298-67.106 34.31-143.124 53.666-223.668 53.666z" fill="#FCC56B" p-id="13405"></path><path d="M444.112 359.704m-141.544 0a141.544 141.544 0 1 0 283.088 0 141.544 141.544 0 1 0-283.088 0Z" fill="#FFFFFF" p-id="13406"></path><path d="M786.872 359.704m-89.132 0a89.132 89.132 0 1 0 178.264 0 89.132 89.132 0 1 0-178.264 0Z" fill="#FFFFFF" p-id="13407"></path><path d="M631.29 722.638m-66.822 0a66.822 66.822 0 1 0 133.644 0 66.822 66.822 0 1 0-133.644 0Z" fill="#7F184C" p-id="13408"></path><path d="M486.89 359.704m-40.03 0a40.03 40.03 0 1 0 80.06 0 40.03 40.03 0 1 0-80.06 0Z" fill="#7F184C" p-id="13409"></path><path d="M801.068 359.704m-40.03 0a40.03 40.03 0 1 0 80.06 0 40.03 40.03 0 1 0-80.06 0Z" fill="#7F184C" p-id="13410"></path><path d="M944.24 237.454c-50.778-79.784-122.42-143.916-207.182-185.458-9.924-4.87-21.914-0.766-26.78 9.164-4.864 9.924-0.764 21.914 9.164 26.78 78.148 38.302 144.204 97.436 191.028 171.008 48.084 75.552 73.5 163.056 73.5 253.052 0 260.248-211.724 471.97-471.97 471.97S40.03 772.244 40.03 512 251.752 40.03 512 40.03c11.054 0 20.014-8.962 20.014-20.014S523.054 0 512 0C229.68 0 0 229.68 0 512s229.68 512 512 512 512-229.68 512-512c0-97.626-27.58-192.56-79.76-274.546z" fill="" p-id="13411"></path><path d="M282.546 359.71c0 89.09 72.48 161.57 161.57 161.57s161.57-72.48 161.57-161.57-72.48-161.57-161.57-161.57c-89.088 0-161.57 72.48-161.57 161.57z m283.112 0c0 67.018-54.522 121.54-121.54 121.54s-121.54-54.522-121.54-121.54 54.522-121.54 121.54-121.54 121.54 54.522 121.54 121.54zM786.86 468.856c60.182 0 109.146-48.964 109.146-109.146s-48.964-109.146-109.146-109.146-109.146 48.964-109.146 109.146 48.964 109.146 109.146 109.146z m0-178.262c38.11 0 69.118 31.006 69.118 69.118s-31.006 69.118-69.118 69.118c-38.11 0-69.118-31.006-69.118-69.118s31.008-69.118 69.118-69.118zM543.284 722.642c0 47.888 38.962 86.848 86.848 86.848 47.886 0 86.848-38.962 86.848-86.848s-38.962-86.848-86.848-86.848c-47.886 0-86.848 38.962-86.848 86.848z m86.848-46.818c25.816 0 46.818 21.004 46.818 46.818s-21.004 46.818-46.818 46.818c-25.814 0-46.818-21.004-46.818-46.818s21.004-46.818 46.818-46.818z" fill="" p-id="13412"></path><path d="M660.726 43.072m-20.014 0a20.014 20.014 0 1 0 40.028 0 20.014 20.014 0 1 0-40.028 0Z" fill="" p-id="13413"></path></svg>