<?xml version="1.0" standalone="no"?><!DOCTYPE svg PUBLIC "-//W3C//DTD SVG 1.1//EN" "http://www.w3.org/Graphics/SVG/1.1/DTD/svg11.dtd"><svg t="1494309091262" class="icon" style="" viewBox="0 0 1024 1024" version="1.1" xmlns="http://www.w3.org/2000/svg" p-id="13163" xmlns:xlink="http://www.w3.org/1999/xlink" width="200" height="200"><defs><style type="text/css"></style></defs><path d="M512.002 512.002m-491.988 0a491.988 491.988 0 1 0 983.976 0 491.988 491.988 0 1 0-983.976 0Z" fill="#FDDF6D" p-id="13164"></path><path d="M617.43 931.356c-271.716 0-491.986-220.268-491.986-491.986 0-145.168 62.886-275.632 162.888-365.684C129.054 155.124 20.014 320.828 20.014 512c0 271.716 220.268 491.986 491.986 491.986 126.548 0 241.924-47.796 329.098-126.298-67.106 34.31-143.124 53.668-223.668 53.668z" fill="#FCC56B" p-id="13165"></path><path d="M337.936 547.698c-36.536 0-66.156 29.62-66.156 66.158h132.314c-0.002-36.538-29.622-66.158-66.158-66.158zM877.628 547.698c-36.536 0-66.156 29.62-66.156 66.158h132.314c0-36.538-29.622-66.158-66.158-66.158z" fill="#F9A880" p-id="13166"></path><path d="M738.086 816.378H518.122c-40.532 0-73.388-32.856-73.388-73.388 0-40.532 32.856-73.388 73.388-73.388h219.964c40.532 0 73.388 32.856 73.388 73.388 0 40.532-32.86 73.388-73.388 73.388z" fill="#FFFFFF" p-id="13167"></path><path d="M444.732 742.99c0 6.942 0.984 13.65 2.786 20.014h361.166a73.34 73.34 0 0 0 0-40.028H447.518a73.35 73.35 0 0 0-2.786 20.014z" fill="#E6E6E6" p-id="13168"></path><path d="M711.298 40.246c-10.178-4.302-21.922 0.454-26.23 10.634-4.304 10.18 0.456 21.926 10.638 26.23C870.818 151.176 983.97 321.88 983.97 512c0 260.248-211.724 471.968-471.97 471.968S40.03 772.248 40.03 512 251.752 40.03 512 40.03c11.054 0 20.014-8.958 20.014-20.014S523.054 0 512 0C229.68 0 0 229.68 0 512c0 282.316 229.68 512 512 512s512-229.68 512-511.998c0-206.238-122.744-391.412-312.702-471.756z" fill="" p-id="13169"></path><path d="M364.428 469.032a20.014 20.014 0 0 0 18.354 12.02 19.92 19.92 0 0 0 7.99-1.674l123.92-54.04a20.014 20.014 0 0 0 0.082-36.656l-123.92-54.706c-10.106-4.464-21.928 0.112-26.392 10.226-4.464 10.114 0.114 21.93 10.228 26.396l82.188 36.286-82.108 35.804c-10.128 4.416-14.762 16.212-10.342 26.344zM891.774 469.032a20.014 20.014 0 0 1-18.354 12.02 19.92 19.92 0 0 1-7.99-1.674l-123.92-54.04a20.014 20.014 0 0 1-0.082-36.656l123.92-54.706c10.106-4.464 21.928 0.112 26.392 10.226 4.464 10.114-0.114 21.93-10.228 26.396l-82.188 36.286 82.108 35.804c10.13 4.416 14.762 16.212 10.342 26.344zM424.718 742.99c0 51.502 41.9 93.402 93.402 93.402h219.964c51.502 0 93.402-41.9 93.402-93.402s-41.9-93.402-93.402-93.402H518.12c-51.5 0.002-93.402 41.902-93.402 93.402z m366.74 0c0 29.43-23.942 53.372-53.372 53.372H518.122c-29.43 0-53.372-23.942-53.372-53.372s23.942-53.372 53.372-53.372h219.964c29.428 0 53.372 23.944 53.372 53.372z" fill="" p-id="13170"></path><path d="M632.784 36.694m-20.014 0a20.014 20.014 0 1 0 40.028 0 20.014 20.014 0 1 0-40.028 0Z" fill="" p-id="13171"></path></svg>