<?xml version="1.0" standalone="no"?><!DOCTYPE svg PUBLIC "-//W3C//DTD SVG 1.1//EN" "http://www.w3.org/Graphics/SVG/1.1/DTD/svg11.dtd"><svg t="1494309084453" class="icon" style="" viewBox="0 0 1024 1024" version="1.1" xmlns="http://www.w3.org/2000/svg" p-id="13040" xmlns:xlink="http://www.w3.org/1999/xlink" width="200" height="200"><defs><style type="text/css"></style></defs><path d="M512.001 473.980926m-455.45289 0a455.45289 455.45289 0 1 0 910.90578 0 455.45289 455.45289 0 1 0-910.90578 0Z" fill="#FDDF6D" p-id="13041"></path><path d="M609.601191 862.191684c-251.538491 0-455.44889-203.910398-455.44889-455.44889 0-134.388262 58.216114-255.162498 150.792295-338.528661C157.494308 143.60428 56.55011 297.00258 56.55011 473.978926c0 251.538491 203.910398 455.44889 455.45089 455.448889 117.152229 0 223.958437-44.246086 304.658595-116.918228-62.122121 31.762062-132.496259 49.682097-207.058404 49.682097z" fill="#FCC56B" p-id="13042"></path><path d="M316.276618 449.046877c-33.822066 0-61.24412 27.420054-61.24412 61.24212h122.488239c-0.002-33.822066-27.420054-61.24212-61.244119-61.24212zM850.477661 449.046877c-33.822066 0-61.24412 27.420054-61.24412 61.24212h122.48824c0-33.822066-27.418054-61.24212-61.24412-61.24212z" fill="#F9A880" p-id="13043"></path><path d="M600.473173 790.751544c-101.816199 0-184.35836-82.540161-184.35836-184.35836h368.71472c0 101.818199-82.536161 184.35836-184.35636 184.35836z" fill="#7F184C" p-id="13044"></path><path d="M461.096901 606.391184v28.778057c0 12.134024 9.838019 21.970043 21.970042 21.970042h234.808459c12.134024 0 21.970043-9.838019 21.970043-21.970042v-28.778057H461.096901z" fill="#F2F2F2" p-id="13045"></path><path d="M655.19528 698.571364h-129.546253v0.214001a168.186328 168.186328 0 0 0-71.28414 19.704038 185.338362 185.338362 0 0 0 48.440095 44.110086 48.770095 48.770095 0 0 1 22.846045 41.296081v98.122192c0 57.136112 46.31809 103.452202 103.452202 103.452202 57.136112 0 103.452202-46.31809 103.452202-103.452202v-126.086247c0.002-42.724083-34.634068-77.360151-77.360151-77.360151z" fill="#FC4C59" p-id="13046"></path><path d="M628.699228 963.913883a18.526036 18.526036 0 0 1-18.528036-18.528037v-176.054343c0-2.060004-4.830009-7.108014-9.228018-9.642019-8.956017-4.95601-12.130024-16.194032-7.174014-25.146049 4.95601-8.956017 16.298032-12.154024 25.250049-7.204014 2.888006 1.598003 28.210055 16.352032 28.210055 41.992082v176.054343a18.528036 18.528036 0 0 1-18.530036 18.528037z" fill="#BC3B4A" p-id="13047"></path><path d="M366.412716 416.068813a18.534036 18.534036 0 0 1-7.416015-35.51607l76.010149-33.146064-76.088149-33.590066a18.530036 18.530036 0 0 1 14.970029-33.902066l114.718224 50.644099a18.530036 18.530036 0 0 1-0.076 33.934066l-114.718224 50.026098a18.444036 18.444036 0 0 1-7.400014 1.550003zM842.179645 416.068813a18.450036 18.450036 0 0 1-7.396015-1.548003l-114.718224-50.026098a18.530036 18.530036 0 0 1-0.076-33.934066l114.718224-50.644099a18.530036 18.530036 0 0 1 14.97003 33.902066l-76.088149 33.590066 76.010148 33.146064a18.530036 18.530036 0 0 1 9.578019 24.390048 18.548036 18.548036 0 0 1-16.998033 11.124022z" fill="#7F184C" p-id="13048"></path><path d="M512.001 0C250.64649 0 38.022074 212.624415 38.022074 473.978926c0 261.35251 212.624415 473.974926 473.978926 473.974925 1.366003 0 2.742005-0.028 4.116008-0.04 18.172035 44.574087 61.958121 76.084149 112.988221 76.084149 67.262131 0 121.984238-54.720107 121.984238-121.980238v-126.086247c0-10.05802-1.564003-19.752039-4.450009-28.868056 36.184071-37.642074 56.722111-88.210172 56.722111-140.674275a18.526036 18.526036 0 0 0-18.528036-18.528036H416.118813a18.526036 18.526036 0 0 0-18.528036 18.528036c0 68.424134 34.144067 131.788257 91.342178 169.498331 0.418001 0.274001 0.858002 0.482001 1.288002 0.718002 10.606021 7.600015 16.906033 19.924039 16.906033 33.302065v92.11018c0 2.970006 0.144 5.904012 0.354001 8.822017-238.840466-2.440005-432.398845-197.456386-432.398844-436.862853 0-240.918471 196.000383-436.920853 436.920853-436.920854s436.920853 196.002383 436.920853 436.920854c0 104.788205-37.660074 206.130403-106.042207 285.348557a18.530036 18.530036 0 0 0 1.920004 26.132051c7.742015 6.688013 19.444038 5.828011 26.132051-1.920004 74.188145-85.946168 115.044225-195.884383 115.044225-309.562604C985.979926 212.624415 773.35551 0 512.001 0z m202.028395 902.021762c0 46.828091-38.100074 84.924166-84.926166 84.924166-38.804076 0-71.58614-26.166051-81.69016-61.774121a18.380036 18.380036 0 0 0-0.626001-2.254004 84.708165 84.708165 0 0 1-2.608005-20.896041v-92.11018c0-26.370052-12.994025-50.698099-34.756068-65.086127a166.908326 166.908326 0 0 1-24.320048-19.568038 150.356294 150.356294 0 0 1 41.434081-7.964016 18.680036 18.680036 0 0 0 1.914004-0.192h126.742248c32.442063 0 58.834115 26.394052 58.834115 58.834114v126.086247h0.002z m51.2281-277.100541c-3.666007 32.398063-16.874033 63.110123-37.800074 88.082172-17.592034-20.174039-43.452085-32.960064-72.260141-32.960065h-129.546253c-1.302003 0-2.572005 0.138-3.798008 0.398001-21.086041 1.348003-41.998082 6.410013-61.45412 14.700029a165.306323 165.306323 0 0 1-24.726048-70.220137h329.584644z" fill="" p-id="13049"></path><path d="M349.418682 404.944791a18.530036 18.530036 0 0 0 24.390048 9.578019l114.718224-50.026098a18.530036 18.530036 0 0 0 0.076-33.934066l-114.718224-50.644099c-9.366018-4.128008-20.30004 0.106-24.436047 9.466018-4.134008 9.362018 0.106 20.30204 9.466018 24.436048l76.088149 33.590066-76.010149 33.146064c-9.374018 4.088008-13.664027 15.006029-9.574019 24.388048zM859.173678 404.944791c4.088008-9.380018-0.198-20.30004-9.578019-24.390048l-76.010148-33.146064 76.088149-33.590066a18.530036 18.530036 0 0 0-14.97003-33.902066l-114.718224 50.644099a18.528036 18.528036 0 1 0 0.076 33.934066l114.718224 50.026098a18.532036 18.532036 0 0 0 24.394048-9.576019z" fill="" p-id="13050"></path><path d="M809.07358 819.991602m-18.528036 0a18.528036 18.528036 0 1 0 37.056072 0 18.528036 18.528036 0 1 0-37.056072 0Z" fill="" p-id="13051"></path></svg>