<?xml version="1.0" standalone="no"?><!DOCTYPE svg PUBLIC "-//W3C//DTD SVG 1.1//EN" "http://www.w3.org/Graphics/SVG/1.1/DTD/svg11.dtd"><svg t="1494309080371" class="icon" style="" viewBox="0 0 1024 1024" version="1.1" xmlns="http://www.w3.org/2000/svg" p-id="12920" xmlns:xlink="http://www.w3.org/1999/xlink" width="200" height="200"><defs><style type="text/css"></style></defs><path d="M512.002 512.002m-491.988 0a491.988 491.988 0 1 0 983.976 0 491.988 491.988 0 1 0-983.976 0Z" fill="#FDDF6D" p-id="12921"></path><path d="M617.43 931.354c-271.716 0-491.986-220.268-491.986-491.986 0-145.168 62.886-275.632 162.888-365.684C129.054 155.124 20.014 320.828 20.014 512c0 271.716 220.268 491.986 491.986 491.986 126.548 0 241.924-47.796 329.098-126.298-67.106 34.31-143.124 53.666-223.668 53.666z" fill="#FCC56B" p-id="12922"></path><path d="M754.794 359.71c0 36.912 29.924 66.834 66.834 66.834 36.912 0 66.834-29.924 66.834-66.834h-133.668zM412.944 359.71c0 36.912 29.924 66.834 66.834 66.834 36.91 0 66.834-29.924 66.834-66.834h-133.668z" fill="#FFFFFF" p-id="12923"></path><path d="M300.572 481.542c-36.536 0-66.156 29.62-66.156 66.158h132.314c0-36.538-29.618-66.158-66.158-66.158zM877.628 472.678c-36.536 0-66.158 29.62-66.158 66.156h132.314c0-36.538-29.62-66.156-66.156-66.156z" fill="#F9A880" p-id="12924"></path><path d="M465.712 780.218a19.96 19.96 0 0 1-14.648-6.372c-7.534-8.088-7.086-20.752 1-28.288 33.622-31.324 92.184-50.782 152.838-50.782 63.42 0 120.406 19.176 152.438 51.294 7.806 7.828 7.788 20.498-0.038 28.304-7.828 7.806-20.5 7.788-28.306-0.038-24.316-24.384-71.868-39.53-124.094-39.53-50.93 0-99.04 15.344-125.55 40.042a19.952 19.952 0 0 1-13.64 5.37z" fill="#7F184C" p-id="12925"></path><path d="M943.196 235.822c-51.46-80.184-123.956-144.338-209.648-185.53-9.96-4.784-21.918-0.596-26.71 9.37-4.788 9.962-0.596 21.92 9.37 26.71 79.004 37.978 145.846 97.132 193.3 171.072 48.714 75.904 74.46 163.928 74.46 254.558 0 260.248-211.724 471.97-471.97 471.97S40.03 772.244 40.03 512 251.752 40.03 512 40.03c11.054 0 20.014-8.962 20.014-20.014S523.054 0 512 0C229.68 0 0 229.68 0 512s229.68 512 512 512 512-229.68 512-512c0-98.31-27.94-193.812-80.804-276.178z" fill="" p-id="12926"></path><path d="M642.25 359.71c0 11.054 8.962 20.014 20.014 20.014h74.842c9.062 38.27 43.52 66.834 84.52 66.834 47.888 0 86.848-38.962 86.848-86.848 0-11.054-8.962-20.014-20.014-20.014H662.266c-11.054-0.002-20.016 8.96-20.016 20.014z m221.702 20.014c-7.518 15.832-23.662 26.804-42.322 26.804-18.658 0-34.804-10.974-42.322-26.804h84.644zM300.4 359.71c0 11.054 8.962 20.014 20.014 20.014h74.842c9.062 38.27 43.52 66.834 84.52 66.834 47.888 0 86.848-38.962 86.848-86.848 0-11.054-8.962-20.014-20.014-20.014H320.414c-11.054-0.002-20.014 8.96-20.014 20.014z m221.698 20.014c-7.518 15.832-23.662 26.804-42.322 26.804-18.66 0-34.804-10.974-42.322-26.804h84.644zM451.062 773.848a19.964 19.964 0 0 0 14.648 6.372 19.948 19.948 0 0 0 13.64-5.37c26.512-24.7 74.62-40.042 125.55-40.042 52.226 0 99.774 15.148 124.094 39.534 7.806 7.828 20.48 7.844 28.306 0.038 7.828-7.806 7.844-20.48 0.038-28.304-32.032-32.12-89.018-51.296-152.438-51.296-60.65 0-119.212 19.46-152.838 50.784-8.086 7.534-8.534 20.198-1 28.284z" fill="" p-id="12927"></path><path d="M654.428 43.39m-20.014 0a20.014 20.014 0 1 0 40.028 0 20.014 20.014 0 1 0-40.028 0Z" fill="" p-id="12928"></path></svg>