<?xml version="1.0" standalone="no"?><!DOCTYPE svg PUBLIC "-//W3C//DTD SVG 1.1//EN" "http://www.w3.org/Graphics/SVG/1.1/DTD/svg11.dtd"><svg t="1494306188914" class="icon" style="" viewBox="0 0 1024 1024" version="1.1" xmlns="http://www.w3.org/2000/svg" p-id="12026" xmlns:xlink="http://www.w3.org/1999/xlink" width="200" height="200"><defs><style type="text/css"></style></defs><path d="M512.006 417.926m-401.588 0a401.588 401.588 0 1 0 803.176 0 401.588 401.588 0 1 0-803.176 0Z" fill="#FDDF6D" p-id="12027"></path><path d="M598.058 760.224c-221.79 0-401.586-179.796-401.586-401.586 0-118.494 51.332-224.986 132.958-298.492C199.418 126.622 110.412 261.876 110.412 417.924c0 221.79 179.796 401.586 401.586 401.586 103.296 0 197.472-39.014 268.628-103.092-54.772 28.004-116.824 43.806-182.568 43.806z" fill="#FCC56B" p-id="12028"></path><path d="M378.484 391.372c21.916-9.438 46.058-14.688 71.434-14.688a180.422 180.422 0 0 1 61.388 10.708c28.638-21.226 47.208-55.264 47.208-93.644 0-64.338-52.156-116.494-116.494-116.494s-116.494 52.156-116.494 116.494c-0.002 40.89 21.084 76.836 52.958 97.624zM702.196 389.37c20.594-8.154 43.016-12.684 66.51-12.684s45.916 4.53 66.51 12.684c30.204-21.048 49.986-56.014 49.986-95.62 0-64.338-52.156-116.494-116.494-116.494s-116.494 52.156-116.494 116.494c-0.004 39.604 19.778 74.572 49.982 95.62z" fill="#FFFFFF" p-id="12029"></path><path d="M369.918 447.062c-29.822 0-54.002 24.176-54.002 54h108.002c0-29.824-24.176-54-54-54zM810.446 447.062c-29.822 0-54.002 24.176-54.002 54h108.002c0.002-29.824-24.176-54-54-54z" fill="#F9A880" p-id="12030"></path><path d="M604.574 694.676c-89.776 0-162.554-72.778-162.554-162.554h325.108c0 89.776-72.778 162.554-162.554 162.554z" fill="#7F184C" p-id="12031"></path><path d="M481.682 532.12v25.374c0 10.7 8.674 19.372 19.372 19.372h207.04c10.7 0 19.372-8.674 19.372-19.372V532.12H481.682z" fill="#F2F2F2" p-id="12032"></path><path d="M697.71 956.304c-19.31 0-34.964-15.654-34.964-34.964V673.756l-69.928-49.144h91.72c26.584 0 48.136 21.55 48.136 48.136V921.34c0 19.308-15.652 34.964-34.964 34.964z" fill="#FC4C59" p-id="12033"></path><path d="M697.71 868.444c-19.31 0-34.964-15.654-34.964-34.964v87.856c0 19.31 15.654 34.964 34.964 34.964s34.964-15.654 34.964-34.964V833.48c0 19.312-15.652 34.964-34.964 34.964z" fill="#BC3B4A" p-id="12034"></path><path d="M627.784 1007.66c-19.31 0-34.964-15.654-34.964-34.964v-298.94l-69.928-49.144h91.72c26.584 0 48.136 21.55 48.136 48.136V972.7c0 19.308-15.654 34.96-34.964 34.96z" fill="#85E266" p-id="12035"></path><path d="M627.784 919.804c-19.31 0-34.964-15.654-34.964-34.964v87.856c0 19.31 15.654 34.964 34.964 34.964s34.964-15.654 34.964-34.964V884.84c0 19.31-15.654 34.964-34.964 34.964z" fill="#50C950" p-id="12036"></path><path d="M557.854 956.304c-19.31 0-34.964-15.654-34.964-34.964V712.268c0-24.594-12.258-45.09-30.046-62.076l-21.416-25.58h73.256c26.584 0 48.136 21.55 48.136 48.136V921.34c0 19.308-15.656 34.964-34.966 34.964z" fill="#3FA9F5" p-id="12037"></path><path d="M557.854 868.444c-19.31 0-34.964-15.654-34.964-34.964v87.856c0 19.31 15.654 34.964 34.964 34.964s34.964-15.654 34.964-34.964V833.48c0.002 19.312-15.654 34.964-34.964 34.964z" fill="#3784F4" p-id="12038"></path><path d="M891.1 242.14a131.32 131.32 0 0 0-5.796-11.96C816.422 93.77 674.966 0 511.998 0 281.556 0 94.076 187.478 94.076 417.922c0 228.624 184.538 414.924 412.478 417.856v85.562c0 28.288 23.012 51.3 51.3 51.3 6.57 0 12.85-1.254 18.628-3.516v3.572c0 28.288 23.012 51.302 51.3 51.302s51.302-23.014 51.302-51.302v-3.572a50.974 50.974 0 0 0 18.626 3.516c28.288 0 51.302-23.012 51.302-51.3V672.748c0-9.752-2.19-19-6.082-27.294 26.196-31.92 40.534-71.69 40.534-113.332a16.336 16.336 0 0 0-16.338-16.338H442.022a16.338 16.338 0 0 0-16.338 16.338c0 36.734 11.054 72.036 31.97 102.084a16.246 16.246 0 0 0 3.646 3.756l19.02 22.718c0.39 0.466 0.804 0.908 1.242 1.326 16.818 16.06 24.994 32.502 24.994 50.262v90.836C296.634 800.174 126.754 628.528 126.754 417.92c-0.004-212.426 172.818-385.246 385.244-385.246 115.876 0 219.96 51.43 290.644 132.654a132.586 132.586 0 0 0-33.936-4.412c-73.244 0-132.832 59.586-132.832 132.832 0 43.402 21.302 84.16 56.982 109.026a16.348 16.348 0 0 0 15.354 1.786 163.622 163.622 0 0 1 60.496-11.538 163.612 163.612 0 0 1 60.494 11.538 16.348 16.348 0 0 0 15.354-1.788 133.108 133.108 0 0 0 46.024-56.298 385.884 385.884 0 0 1 6.67 71.446c0 80.22-24.412 157.104-70.596 222.34a16.34 16.34 0 0 0 26.666 18.882c50.116-70.79 76.604-154.202 76.604-241.22 0-62.76-13.93-122.316-38.822-175.782z m-174.76 679.2c0 10.27-8.356 18.626-18.628 18.626-10.27 0-18.626-8.356-18.626-18.626v-52.366a16.336 16.336 0 0 0-16.338-16.338 16.336 16.336 0 0 0-16.338 16.338V972.698c0 10.272-8.356 18.628-18.628 18.628-10.27 0-18.626-8.356-18.626-18.628V750.626c0-9.024-7.312-16.338-16.338-16.338s-16.338 7.312-16.338 16.338v170.714c0 10.27-8.356 18.626-18.628 18.626-10.27 0-18.626-8.356-18.626-18.626V712.268c0-25.758-10.92-49.736-32.468-71.318h37.924c17.534 0 31.798 14.266 31.798 31.798 0 9.024 7.312 16.338 16.338 16.338s16.338-7.312 16.338-16.338a64.066 64.066 0 0 0-8.422-31.798h13.878c17.534 0 31.798 14.266 31.798 31.798V785.112a16.336 16.336 0 0 0 16.338 16.338 16.336 16.336 0 0 0 16.338-16.338V672.748a64.066 64.066 0 0 0-8.422-31.798h13.878c17.534 0 31.798 14.266 31.798 31.798V921.34zM479.732 608.274a144.92 144.92 0 0 1-20.476-59.818h290.63a145.34 145.34 0 0 1-28.42 71.486 64.1 64.1 0 0 0-36.926-11.67H479.732z m389.13-314.524c0 29.954-13.464 58.238-36.386 77.198a196.138 196.138 0 0 0-63.77-10.6 196.122 196.122 0 0 0-63.772 10.6c-22.922-18.96-36.386-47.244-36.386-77.198 0-55.228 44.932-100.158 100.158-100.158 37.73 0 70.64 20.976 87.716 51.874 1.61 3.2 3.172 6.426 4.692 9.676a99.58 99.58 0 0 1 7.748 38.608z" fill="" p-id="12039"></path><path d="M309.188 293.75c0 45.042 22.57 86.652 60.372 111.308a16.324 16.324 0 0 0 15.384 1.324c20.58-8.862 42.442-13.356 64.974-13.356a163.908 163.908 0 0 1 55.84 9.74 16.336 16.336 0 0 0 15.276-2.242c33.698-24.976 53.814-64.888 53.814-106.77 0-73.244-59.586-132.832-132.83-132.832-73.242-0.006-132.83 59.584-132.83 132.828z m232.988 0c0 29.272-12.346 56.296-34.144 75.328a196.734 196.734 0 0 0-58.114-8.728c-23.876 0-47.13 4.212-69.258 12.536-24.436-18.934-38.8-47.948-38.8-79.134 0-55.228 44.932-100.158 100.158-100.158 55.228-0.004 100.158 44.928 100.158 100.156z" fill="" p-id="12040"></path><path d="M804.244 694.676m-16.338 0a16.338 16.338 0 1 0 32.676 0 16.338 16.338 0 1 0-32.676 0Z" fill="" p-id="12041"></path><path d="M461.622 293.742m-50.384 0a50.384 50.384 0 1 0 100.768 0 50.384 50.384 0 1 0-100.768 0Z" fill="#7F184C" p-id="12042"></path><path d="M475.934 273.462m-21.782 0a21.782 21.782 0 1 0 43.564 0 21.782 21.782 0 1 0-43.564 0Z" fill="#FFFFFF" p-id="12043"></path><path d="M788.364 293.742m-50.384 0a50.384 50.384 0 1 0 100.768 0 50.384 50.384 0 1 0-100.768 0Z" fill="#7F184C" p-id="12044"></path><path d="M802.676 273.462m-21.782 0a21.782 21.782 0 1 0 43.564 0 21.782 21.782 0 1 0-43.564 0Z" fill="#FFFFFF" p-id="12045"></path></svg>