<?xml version="1.0" standalone="no"?><!DOCTYPE svg PUBLIC "-//W3C//DTD SVG 1.1//EN" "http://www.w3.org/Graphics/SVG/1.1/DTD/svg11.dtd"><svg t="1494309059229" class="icon" style="" viewBox="0 0 1024 1024" version="1.1" xmlns="http://www.w3.org/2000/svg" p-id="12430" xmlns:xlink="http://www.w3.org/1999/xlink" width="200" height="200"><defs><style type="text/css"></style></defs><path d="M483.266 56.648c-47.86 0-93.408 9.884-134.736 27.698-20.16-25.402-51.28-41.714-86.226-41.714-60.778 0-110.05 49.272-110.05 110.05 0 4.84 0.346 9.596 0.952 14.27a65.364 65.364 0 0 0-18.636-2.71c-36.114 0-65.388 29.276-65.388 65.386 0 28.596 18.366 52.888 43.936 61.768a65.06 65.06 0 0 0-9.832 34.474c0 26.898 16.246 49.992 39.456 60.032a347.084 347.084 0 0 0-0.212 11.476c0 188.182 152.552 340.736 340.736 340.736S824 585.564 824 397.382c0.002-188.18-152.552-340.734-340.734-340.734z" fill="#F78CC2" p-id="12431"></path><path d="M528.82 17.314c-35.56 0-70.09 4.388-103.108 12.604 0.962 11.148 1.482 22.422 1.482 33.82 0 192.486-140.114 352.22-323.908 382.844 1.986 233.338 191.724 421.89 425.534 421.89 235.042 0 425.58-190.54 425.58-425.58 0-235.042-190.54-425.578-425.58-425.578z" fill="#CCE7A0" p-id="12432"></path><path d="M620.02 805.644c-222.002 0-404.268-169.992-423.812-386.906a385.2 385.2 0 0 1-92.922 27.842c1.986 233.338 191.724 421.89 425.534 421.89 109.468 0 209.27-41.344 284.678-109.254-58.048 29.684-123.808 46.428-193.478 46.428z" fill="#AED893" p-id="12433"></path><path d="M624.696 494.23c91.86 0 166.326 74.468 166.326 166.326v50.59H458.37v-50.59c0-91.858 74.468-166.326 166.326-166.326z" fill="#7F184C" p-id="12434"></path><path d="M624.696 570.46c-53.9 0-97.592 43.694-97.592 97.592V898.554c0 17.966 14.564 32.53 32.53 32.53s32.53-14.564 32.53-32.53v75.604c0 17.966 14.564 32.53 32.53 32.53s32.53-14.564 32.53-32.53v-46.746c0 17.966 14.564 32.53 32.53 32.53s32.53-14.564 32.53-32.53V668.056c0.004-53.902-43.688-97.596-97.588-97.596z" fill="#B5E589" p-id="12435"></path><path d="M689.756 790.38c-32.126 0-32.53 14.216-32.53 14.216-4.47 16.462-14.564 32.53-32.53 32.53s-32.53-14.564-32.53-32.53c0 0 5.448-43.07-32.53-43.07-17.966 0-32.53-14.564-32.53-32.53v170.824c0 17.966 14.564 32.53 32.53 32.53s32.53-14.564 32.53-32.53v75.602c0 17.966 14.564 32.53 32.53 32.53s32.53-14.564 32.53-32.53v-46.746c0 17.966 14.564 32.53 32.53 32.53s32.53-14.564 32.53-32.53v-170.824c0.002 17.962-14.562 32.528-32.53 32.528z" fill="#8BC673" p-id="12436"></path><path d="M652.152 702.27m-17.314 0a17.314 17.314 0 1 0 34.628 0 17.314 17.314 0 1 0-34.628 0Z" fill="#8BC673" p-id="12437"></path><path d="M628.214 774.316m-17.314 0a17.314 17.314 0 1 0 34.628 0 17.314 17.314 0 1 0-34.628 0Z" fill="#8BC673" p-id="12438"></path><path d="M580.592 684.956m-17.314 0a17.314 17.314 0 1 0 34.628 0 17.314 17.314 0 1 0-34.628 0Z" fill="#8BC673" p-id="12439"></path><path d="M528.82 0c-36.22 0-72.316 4.414-107.288 13.116a17.314 17.314 0 0 0-13.068 18.292c0.942 10.892 1.418 21.768 1.418 32.332 0 88.312-31.564 173.852-88.874 240.866-43.072 50.366-98.644 88.052-160.372 109.512a344.67 344.67 0 0 1-0.374-16.734c0-3.268 0.064-6.734 0.204-10.904a17.314 17.314 0 0 0-10.432-16.464 48.066 48.066 0 0 1-29.014-44.142c0-8.98 2.496-17.738 7.218-25.328a17.308 17.308 0 0 0 1.62-14.922 17.322 17.322 0 0 0-10.642-10.58 48.11 48.11 0 0 1-32.304-45.414c0-26.508 21.568-48.072 48.076-48.072 4.64 0 9.252 0.672 13.708 1.992a17.31 17.31 0 0 0 22.096-18.822 93.014 93.014 0 0 1-0.808-12.046c0-51.132 41.6-92.734 92.736-92.734 28.45 0 54.936 12.816 72.666 35.16a17.314 17.314 0 0 0 27.124-21.524c-24.338-30.672-60.712-48.262-99.792-48.262-68.304 0-124.222 54.038-127.234 121.612l-0.498-0.002c-45.602 0-82.702 37.098-82.702 82.7 0 28.722 14.878 54.918 38.426 69.85a82.7 82.7 0 0 0-4.316 26.392 82.664 82.664 0 0 0 39.246 70.372l-0.002 1.136c0 9.762 0.29 18.308 0.928 26.764a365.524 365.524 0 0 1-26.12 5.356 17.32 17.32 0 0 0-14.47 17.226c0.994 116.868 47.08 226.754 129.764 309.408 79.042 79.016 182.96 124.538 294.052 129.216v13.2c0 27.484 22.362 49.846 49.846 49.846 5.304 0 10.418-0.834 15.218-2.374v28.13c0 27.484 22.362 49.846 49.844 49.846 27.244 0 49.452-21.972 49.842-49.12 4.8 1.542 9.914 2.376 15.222 2.376 27.484 0 49.844-22.362 49.844-49.846V728.46h51.422a17.312 17.312 0 0 0 17.314-17.314v-50.59c0-101.26-82.384-183.64-183.642-183.64s-183.64 82.38-183.64 183.64v50.59a17.312 17.312 0 0 0 17.314 17.314h51.42v122.234c-101.844-4.656-197.062-46.562-269.572-119.046-72.8-72.776-114.822-168.442-119.242-270.748 87.752-18.048 167.664-65.17 226.346-133.788C410 253.83 444.516 160.296 444.516 63.738c0-6.666-0.174-13.442-0.518-20.264a410.572 410.572 0 0 1 84.826-8.848c225.12 0 408.266 183.146 408.266 408.264 0 103.038-38.492 201.432-108.386 277.048a17.312 17.312 0 0 0 0.962 24.466 17.312 17.312 0 0 0 24.468-0.962c75.824-82.034 117.584-188.772 117.584-300.55C971.712 198.68 773.034 0 528.82 0z m176.154 927.408c0 8.394-6.826 15.22-15.218 15.22s-15.218-6.826-15.218-15.22a17.312 17.312 0 0 0-17.314-17.314 17.312 17.312 0 0 0-17.314 17.314v46.746c0 8.394-6.828 15.22-15.22 15.22s-15.218-6.826-15.218-15.22v-75.602c0-9.564-7.75-17.314-17.314-17.314s-17.314 7.75-17.314 17.314c0 8.394-6.826 15.22-15.218 15.22-8.394 0-15.22-6.826-15.22-15.22v-230.5c0-44.266 36.014-80.278 80.278-80.278s80.278 36.014 80.278 80.278v259.356h0.012zM475.682 693.832v-33.276c0-82.166 66.848-149.014 149.014-149.014 82.168 0 149.016 66.848 149.016 149.014v33.276h-34.11v-25.78c0-63.358-51.544-114.904-114.904-114.904s-114.904 51.548-114.904 114.904v25.78h-34.112z" fill="" p-id="12440"></path><path d="M504.488 340.046a17.318 17.318 0 0 0-24.486 0l-32.918 32.918-32.918-32.918a17.314 17.314 0 1 0-24.486 24.486l32.918 32.918-32.918 32.918a17.314 17.314 0 1 0 24.488 24.486l32.918-32.918 32.918 32.918c3.382 3.38 7.814 5.07 12.244 5.07s8.862-1.69 12.244-5.07a17.314 17.314 0 0 0 0-24.486l-32.918-32.918 32.918-32.918c6.756-6.764 6.756-17.726-0.004-24.486zM832.284 430.368l-32.918-32.918 32.918-32.918a17.314 17.314 0 1 0-24.486-24.486l-32.918 32.918-32.918-32.918a17.314 17.314 0 1 0-24.486 24.486l32.918 32.918-32.918 32.918a17.314 17.314 0 1 0 24.488 24.486l32.918-32.918 32.918 32.918c3.382 3.38 7.814 5.07 12.244 5.07s8.862-1.69 12.244-5.07c6.758-6.766 6.758-17.726-0.004-24.486zM314.126 188.816a17.3 17.3 0 0 0 23.55 6.702 17.312 17.312 0 0 0 6.7-23.548 58.758 58.758 0 0 0-51.298-30.158c-20.644 0-40.288 11.374-51.264 29.68a17.314 17.314 0 1 0 29.698 17.806c4.756-7.932 13.02-12.858 21.566-12.858a24.11 24.11 0 0 1 21.048 12.376zM215.678 249.608c-17.498 10.958-28.108 31.022-27.69 52.37a17.316 17.316 0 0 0 17.304 16.976l0.344-0.002a17.32 17.32 0 0 0 16.974-17.65c-0.182-9.248 4.204-17.81 11.448-22.348a24.12 24.12 0 0 1 24.41-0.678 17.316 17.316 0 0 0 16.692-30.34 58.742 58.742 0 0 0-59.482 1.672z" fill="" p-id="12441"></path><path d="M796.176 771.268m-17.314 0a17.314 17.314 0 1 0 34.628 0 17.314 17.314 0 1 0-34.628 0Z" fill="" p-id="12442"></path></svg>